<?xml version="1.0" encoding="utf-8"?>
<svg id="Layer_1" xmlns="http://www.w3.org/2000/svg" viewBox="0 0 250 65.681"><style>.st0{fill:#DAB823;} .st1{fill:#1C5170;}</style><path class="st0" d="M183.593 28.602H165.1v-8.095l-1.678-19.023c.59-.4 1.303-.632 2.07-.632 2.048 0 3.706 1.66 3.706 3.706 0 .97-.382 1.892-1.003 2.53 1.987.068 3.578 1.7 3.578 3.705 0 2.046-1.66 3.706-3.705 3.706-.53 0-1.035-.112-1.49-.313v.544c0 2.048 1.66 3.71 3.707 3.71 2.047 0 3.706-1.66 3.706-3.706h1.383c0 2.047 1.66 3.705 3.706 3.705 2.045 0 3.704-1.66 3.704-3.706l-.002-.338h.003c-.59.338-1.277.533-2.006.533-2.24 0-4.054-1.816-4.054-4.054 0-2.193 1.74-3.974 3.916-4.046-.68-.726-1.1-1.7-1.1-2.774 0-2.24 1.815-4.054 4.055-4.054 2.24 0 4.054 1.815 4.054 4.054 0 1.072-.416 2.048-1.096 2.773 2.173.073 3.913 1.853 3.913 4.046 0 2.238-1.815 4.053-4.054 4.053-.73 0-1.415-.197-2.006-.535h.003l-.003.34c0 2.046 1.66 3.704 3.706 3.704 2.047 0 3.705-1.66 3.705-3.706h1.382c0 2.047 1.66 3.705 3.705 3.705 2.047 0 3.707-1.663 3.707-3.71l.002-.543c-.457.2-.96.312-1.49.312-2.047 0-3.706-1.66-3.706-3.707 0-2.004 1.59-3.637 3.577-3.705-.62-.637-1.003-1.56-1.003-2.53 0-2.047 1.66-3.706 3.706-3.706.767 0 1.48.233 2.07.632l-1.677 19.023v8.095h-18.497zM229.828 28.602h-18.494v-8.095l-1.678-19.023c.59-.4 1.303-.632 2.07-.632 2.048 0 3.706 1.66 3.706 3.706 0 .97-.382 1.892-1.003 2.53 1.986.068 3.577 1.7 3.577 3.705 0 2.046-1.66 3.706-3.706 3.706-.53 0-1.032-.112-1.49-.313l.002.544c0 2.048 1.66 3.71 3.707 3.71s3.704-1.66 3.704-3.706h1.383c0 2.047 1.66 3.705 3.705 3.705 2.047 0 3.705-1.66 3.705-3.706l-.002-.338h.003c-.592.338-1.277.533-2.006.533-2.238 0-4.054-1.816-4.054-4.054 0-2.193 1.74-3.974 3.916-4.046-.68-.726-1.1-1.7-1.1-2.774 0-2.24 1.815-4.054 4.055-4.054 2.238 0 4.052 1.815 4.052 4.054 0 1.072-.416 2.048-1.098 2.773 2.175.073 3.914 1.853 3.914 4.046 0 2.238-1.815 4.053-4.054 4.053-.73 0-1.415-.197-2.007-.535h.003v.34c0 2.046 1.658 3.704 3.704 3.704 2.047 0 3.705-1.66 3.705-3.706h1.38c0 2.047 1.66 3.705 3.707 3.705 2.046 0 3.706-1.663 3.706-3.71v-.543c-.454.2-.958.312-1.49.312-2.045 0-3.704-1.66-3.704-3.707 0-2.004 1.59-3.637 3.576-3.705-.62-.637-1.003-1.56-1.003-2.53 0-2.047 1.66-3.706 3.705-3.706.767 0 1.48.233 2.072.632l-1.678 19.023v8.095h-18.494zM206.72 64.652H187.3v-8.5l-1.763-19.974c.62-.42 1.37-.664 2.175-.664 2.15 0 3.89 1.742 3.89 3.89 0 1.02-.4 1.988-1.053 2.657 2.086.072 3.756 1.787 3.756 3.89 0 2.15-1.742 3.89-3.89 3.89-.558 0-1.087-.116-1.566-.326l.002.57c0 2.15 1.742 3.894 3.89 3.894 2.15 0 3.892-1.742 3.892-3.89h1.45c0 2.148 1.743 3.89 3.892 3.89 2.15 0 3.89-1.742 3.89-3.89v-.355h.002c-.62.354-1.34.56-2.106.56-2.35 0-4.256-1.906-4.256-4.257 0-2.303 1.827-4.173 4.112-4.248-.716-.762-1.155-1.786-1.155-2.914 0-2.35 1.905-4.256 4.257-4.256 2.35 0 4.257 1.906 4.257 4.256 0 1.127-.438 2.152-1.153 2.913 2.283.077 4.11 1.947 4.11 4.25 0 2.35-1.906 4.256-4.258 4.256-.766 0-1.486-.206-2.108-.56h.003v.355c0 2.15 1.74 3.89 3.89 3.89 2.15 0 3.89-1.74 3.89-3.89h1.452c0 2.15 1.743 3.89 3.89 3.89 2.15 0 3.893-1.744 3.893-3.892l.002-.57c-.48.21-1.01.326-1.565.326-2.15 0-3.89-1.742-3.89-3.89 0-2.104 1.67-3.82 3.756-3.89-.653-.67-1.054-1.638-1.054-2.656 0-2.15 1.742-3.89 3.89-3.89.806 0 1.554.244 2.175.663l-1.764 19.974v8.5H206.72z"/><path class="st1" d="M36.887 42.426c4.623 0 7.142 2.415 7.142 5.555 0 3.037-2.657 5.418-5.487 6.074L43.51 60.3c1.45 1.793 3.624 3.587 5.59 4.83h-3.174c-1.83 0-2.967-.45-4.002-1.726l-4.21-5.21-3.173-4.864c2.76-.414 5.97-1.69 5.97-4.934 0-2.484-2.14-3.933-4.45-3.83-.794.034-1.553.138-2.347.276V60.3c0 1.586-.207 4.105 1.553 4.726v.104h-6.59v-.104c1.76-.62 1.518-3.174 1.518-4.727V47.29c0-1.586.24-4.105-1.518-4.76v-.104h8.21zM50.876 47.29c0-1.586.24-4.105-1.518-4.76v-.104h6.556v.104c-1.725.655-1.518 3.21-1.518 4.76V60.3c0 1.553-.207 4.07 1.518 4.727v.104h-6.556v-.105c1.725-.62 1.518-3.174 1.518-4.727V47.29zM62.293 47.256c0-1.553.207-4.072-1.553-4.727v-.105h6.625v.104c-1.76.62-1.553 3.173-1.553 4.726v13.008c0 1.587-.207 4.106 1.553 4.76v.105H60.74v-.105c1.76-.655 1.553-3.21 1.553-4.76v-13.01z"/><path class="st1" d="M70.78 47.325c1.14-1.622 3.21-3.76.898-4.796v-.105h6.21v.034l-7.934 10.177 6.97 9.143c1.068 1.415 2.38 2.38 4.14 3.243v.104h-3.245c-1.69 0-3.28-.655-3.9-1.484l-7.66-10.316 4.52-6.002zM96.115 46.532c-1.345-1.38-3.484-2.173-5.417-2.173-1.967 0-4.45.758-4.45 3.14 0 4.726 11.868 4.657 11.868 11.04 0 3.692-3.864 7.142-9.247 7.142-2.106 0-4.21-.31-6.177-1.035l-1-4.313c2.035 1.76 4.865 2.864 7.556 2.864 1.966 0 4.933-1.173 4.933-3.588 0-5.383-11.868-4.417-11.868-11.73 0-4.348 4.45-6.005 8.66-6.005 1.725 0 3.485.242 5.14.76v3.897zM130.57 56.607l-1.794 4.865c-.724 1.932-.966 2.933.69 3.554v.104h-6.348v-.104c2-1 2.588-2.933 3.347-4.9l5.762-14.386c.483-1.242 1.138-2.69-.518-3.21v-.103h5.45l7.177 17.7c.793 1.967 1.414 3.9 3.38 4.9v.103h-7.072v-.104c1.69-.76 1.415-1.138.483-3.554l-1.863-4.865h-8.695zm4.055-11.248l-3.416 8.694h6.796l-3.38-8.695zM168.02 46.428h-.104c-1.414-1.587-4.037-2.07-6.14-2.07-5.384 0-9.49 3.52-9.49 9.074 0 5.555 4.417 9.764 9.868 9.764 1.587 0 3.244-.207 4.796-.656v-4.968c0-1.587-.034-3.278-1.587-3.9v-.102h5.28v.104c-.174.414-.174.966-.174 1.484v7.935c0 .517-.035 1.07.172 1.553-2.76.517-5.45 1.035-8.246 1.035-8.832 0-14.043-4.83-14.043-11.764 0-7.418 5.9-12.04 14.25-12.04 1.83 0 3.623.206 5.416.586v3.966zM14.422 10.507c-1.345-1.38-3.484-2.173-5.417-2.173-1.967 0-4.45.76-4.45 3.14 0 4.726 11.868 4.657 11.868 11.04 0 3.69-3.864 7.142-9.247 7.142-2.105 0-4.21-.31-6.176-1.035L0 24.31c2.035 1.76 4.865 2.863 7.556 2.863 1.967 0 4.934-1.17 4.934-3.587C12.49 18.2.62 19.167.62 11.853c0-4.347 4.452-6.004 8.66-6.004 1.726 0 3.486.24 5.142.758v3.9zM33.005 12.646c.932-2.45 2.105-5.28-.034-6.14V6.4h5.14L29.004 30.14c-2.415-1.588-3.21-1.864-4.21-4.59l-5.21-14.112c-.655-1.76-1.172-3.76-2.69-4.934v-.102h5.038l-.034.414c0 .76.656 2.45.932 3.21l5.486 15.008 4.69-12.388zM45.464 26.206l4.382.414c2.277.207 4.658-.517 6.383-2.036h.103l-1.553 4.52H40.392V29c1.76-.62 1.553-3.174 1.553-4.727V11.266c0-1.587.207-4.106-1.553-4.762v-.102h11.04c.587 0 1.174.07 1.623-.172h.103v4.037h-.103c-1.07-1.242-2.484-1.38-4.072-1.38-1.207 0-2.415.034-3.52.24v6.42h4.107c.552 0 1.104 0 1.518-.208h.104v3.656h-.104c-.552-1-2-.966-3.07-.966h-2.554v8.176zM66.548 6.402c4.623 0 7.142 2.415 7.142 5.555 0 3.036-2.657 5.417-5.486 6.072l4.968 6.244c1.45 1.794 3.623 3.588 5.59 4.83h-3.175c-1.828 0-2.967-.45-4.002-1.725l-4.21-5.21-3.173-4.866c2.76-.414 5.97-1.69 5.97-4.934 0-2.484-2.14-3.934-4.452-3.83-.794.034-1.553.138-2.346.276v15.457c0 1.587-.207 4.106 1.553 4.727v.104h-6.59V29c1.76-.62 1.518-3.174 1.518-4.727V11.266c0-1.587.24-4.106-1.518-4.762v-.102h8.21zM80.44 11.266c0-1.587.24-4.106-1.52-4.762v-.102h6.557v.103c-1.725.655-1.518 3.21-1.518 4.762v13.007c0 1.552-.208 4.07 1.517 4.727v.105H78.92V29c1.726-.62 1.52-3.174 1.52-4.727V11.266zM120.754 26.206l4.382.414c2.277.207 4.657-.517 6.383-2.036h.103l-1.553 4.52h-14.388V29c1.76-.62 1.552-3.174 1.552-4.727V11.266c0-1.587.207-4.106-1.552-4.762v-.102h11.04c.588 0 1.173.07 1.623-.172h.104v4.037h-.105c-1.07-1.242-2.484-1.38-4.07-1.38-1.21 0-2.416.034-3.52.24v6.42h4.106c.553 0 1.105 0 1.52-.208h.102v3.656h-.103c-.552-1-2.002-.966-3.072-.966h-2.553v8.176zM147.392 10.507c-1.345-1.38-3.485-2.173-5.417-2.173-1.967 0-4.45.76-4.45 3.14 0 4.726 11.868 4.657 11.868 11.04 0 3.69-3.864 7.142-9.247 7.142-2.104 0-4.21-.31-6.176-1.035l-1-4.312c2.036 1.76 4.865 2.863 7.556 2.863 1.967 0 4.934-1.17 4.934-3.587 0-5.382-11.87-4.416-11.87-11.73 0-4.347 4.452-6.004 8.66-6.004 1.727 0 3.486.24 5.142.758v3.9zM103.27 47.196c0-1.584.24-4.097-1.516-4.614v-.103h8.436c7.85 0 12.74 4.268 12.74 11.12 0 6.783-5.2 11.535-12.912 11.535h-8.264v-.103c1.722-1.17 1.515-2.823 1.515-4.855v-12.98zm3.51 15.22c.828.17 1.654.24 2.515.24 5.13 0 9.71-2.686 9.71-8.642 0-6.026-3.374-9.056-9.125-9.056-1.033 0-2.066.138-3.1.38v17.077z"/><g><path class="st1" d="M108.813 10.427h-.103c-1.412-1.584-4.03-2.066-6.13-2.066-5.37 0-9.468 3.513-9.468 9.056 0 5.544 4.407 9.744 9.847 9.744 1.583 0 3.236-.206 4.785-.654v-4.958c0-1.584-.034-3.27-1.584-3.89v-.104h5.27v.103c-.173.413-.173.964-.173 1.48v7.92c0 .517-.034 1.068.172 1.55-2.756.516-5.442 1.032-8.23 1.032-8.815 0-14.014-4.82-14.014-11.742 0-7.403 5.888-12.016 14.22-12.016 1.825 0 3.615.206 5.406.585v3.96z"/></g></svg>
